<?xml version="1.0" standalone="no"?>
<!DOCTYPE svg PUBLIC "-//W3C//DTD SVG 20010904//EN"
 "http://www.w3.org/TR/2001/REC-SVG-20010904/DTD/svg10.dtd">
<svg version="1.0" xmlns="http://www.w3.org/2000/svg"
 width="1296.000000pt" height="1296.000000pt" viewBox="0 0 1296.000000 1296.000000"
 preserveAspectRatio="xMidYMid meet">

<g transform="translate(0.000000,1296.000000) scale(0.100000,-0.100000)"
fill="#000000" stroke="none">
<path d="M2494 5379 c-358 -34 -573 -219 -646 -554 -17 -75 -21 -141 -25 -393
-5 -312 3 -464 33 -578 58 -225 228 -391 464 -455 107 -29 341 -36 478 -15
171 26 352 97 441 172 l31 26 0 444 0 444 -340 0 -340 0 0 -140 0 -140 175 0
175 0 0 -215 0 -215 -24 -15 c-84 -55 -270 -86 -403 -66 -95 14 -189 57 -234
108 -46 53 -86 146 -101 233 -19 115 -16 591 5 700 45 236 169 346 402 357
114 6 204 -11 285 -52 l50 -25 0 -99 c0 -72 4 -102 14 -110 9 -8 60 -11 157
-9 l144 3 3 197 2 196 -37 32 c-55 46 -205 116 -301 140 -77 19 -246 41 -302
38 -14 0 -62 -4 -106 -9z"/>
<path d="M9200 5200 l0 -151 158 3 157 3 0 145 0 145 -157 3 -158 3 0 -151z"/>
<path d="M4022 4809 c-130 -20 -271 -93 -345 -179 -84 -98 -131 -233 -147
-421 -26 -292 38 -537 174 -674 112 -111 257 -165 446 -165 168 0 292 30 410
100 68 40 170 132 170 153 0 15 -184 177 -201 177 -6 0 -30 -16 -52 -36 -22
-20 -69 -50 -106 -68 -63 -29 -72 -31 -186 -31 -111 0 -124 2 -171 27 -28 15
-64 42 -79 60 -41 49 -77 132 -78 186 l-2 47 445 5 445 5 -1 136 c-3 252 -51
398 -171 518 -71 71 -170 127 -263 149 -68 16 -217 22 -288 11z m238 -290 c97
-43 156 -130 162 -239 l3 -45 -285 0 -285 0 -3 33 c-9 93 59 205 153 248 67
32 189 33 255 3z"/>
<path d="M5460 4811 c-201 -30 -355 -134 -432 -293 -61 -125 -73 -195 -73
-423 0 -228 12 -304 70 -425 69 -142 213 -250 385 -286 112 -24 282 -15 380
19 251 88 371 282 387 627 24 491 -176 763 -576 784 -47 3 -111 1 -141 -3z
m199 -297 c137 -40 191 -161 191 -429 0 -302 -86 -425 -295 -425 -96 0 -165
34 -212 104 -41 60 -51 96 -64 227 -12 128 1 292 31 370 20 55 71 114 120 140
61 31 151 37 229 13z"/>
<path d="M7906 4809 c-115 -17 -231 -89 -297 -186 -32 -46 -73 -147 -89 -219
-35 -155 -30 -446 11 -594 67 -245 231 -370 484 -370 148 0 263 43 330 122
l25 30 0 -104 c0 -176 -43 -267 -148 -316 -50 -24 -70 -27 -157 -27 -91 0
-106 3 -165 31 -36 17 -85 47 -108 67 -24 21 -49 37 -54 37 -19 0 -198 -183
-198 -202 0 -24 64 -85 133 -126 159 -96 389 -126 594 -77 205 48 346 189 405
402 21 75 22 102 26 651 l4 572 73 0 c93 0 95 3 95 149 0 86 -3 113 -16 125
-13 14 -49 16 -238 16 -159 0 -225 -3 -234 -12 -7 -7 -12 -36 -12 -65 l0 -53
-40 44 c-85 92 -244 131 -424 105z m281 -294 c64 -19 121 -79 154 -161 22 -54
24 -73 24 -229 -1 -154 -3 -176 -24 -228 -56 -142 -181 -205 -324 -163 -73 21
-113 57 -148 129 -77 163 -59 478 33 583 68 77 173 102 285 69z"/>
<path d="M10310 4814 c-144 -17 -326 -68 -363 -101 -16 -15 -17 -34 -15 -182
l3 -166 150 0 150 0 3 82 3 82 37 8 c20 4 82 8 137 8 195 0 262 -57 268 -231
l2 -69 -215 -6 c-245 -7 -316 -20 -422 -76 -147 -77 -220 -221 -205 -406 11
-144 64 -240 169 -308 83 -53 143 -70 268 -76 165 -8 275 25 365 109 l44 40 3
-59 3 -58 230 0 230 0 0 135 0 135 -80 5 -80 5 -5 400 c-6 431 -8 443 -64 539
-50 86 -142 144 -273 171 -70 15 -281 26 -343 19z m374 -920 c-1 -151 -51
-219 -181 -250 -198 -47 -353 22 -353 156 0 84 44 140 132 171 45 16 80 18
228 16 l175 -2 -1 -91z"/>
<path d="M7138 4799 c-88 -13 -159 -51 -223 -121 l-55 -61 0 80 c0 65 -3 82
-16 87 -9 3 -112 6 -229 6 -117 0 -220 -3 -229 -6 -14 -5 -16 -27 -16 -139 0
-153 -6 -145 101 -145 l69 0 -2 -407 -3 -408 -80 -5 -80 -5 0 -135 0 -135 330
0 330 0 3 137 3 137 -88 3 -88 3 -3 250 c-2 149 2 276 8 314 35 201 166 283
397 246 78 -13 98 -13 105 -3 4 7 7 74 6 148 -3 133 -3 135 -28 146 -35 16
-144 23 -212 13z"/>
<path d="M9042 4782 c-9 -7 -12 -42 -10 -143 l3 -134 80 -5 80 -5 0 -405 0
-405 -83 -3 -83 -3 3 -137 3 -137 325 0 325 0 0 135 0 135 -80 5 -80 5 -3 539
c-1 378 -6 543 -13 553 -9 10 -60 13 -233 13 -121 0 -227 -4 -234 -8z"/>
<path d="M4770 2635 l0 -255 150 0 149 0 3 103 3 102 163 3 162 2 -2 -682 -3
-683 -90 -3 c-56 -2 -92 -7 -97 -15 -4 -7 -8 -64 -8 -128 0 -87 4 -119 14
-128 9 -8 113 -11 362 -9 l349 3 3 137 3 137 -93 3 -93 3 -3 683 -2 682 160 0
160 0 0 -92 c0 -51 4 -99 8 -106 7 -9 44 -12 153 -10 l144 3 0 250 0 250 -797
3 -798 2 0 -255z"/>
<path d="M9032 2753 l3 -138 78 -3 77 -3 0 -694 0 -695 -80 0 -81 0 3 -138 3
-137 320 0 320 0 3 138 3 137 -81 0 -80 0 0 313 c0 181 4 327 10 349 17 60 71
130 120 158 36 20 59 24 120 25 93 0 158 -28 201 -88 55 -76 60 -112 57 -448
l-3 -304 -80 -5 -80 -5 0 -135 0 -135 325 0 325 0 0 135 0 135 -80 5 -80 5 -5
380 c-6 411 -8 423 -65 521 -88 150 -221 226 -400 227 -146 1 -238 -29 -321
-105 l-44 -41 0 326 c0 179 -3 332 -6 341 -5 14 -36 16 -245 16 l-240 0 3
-137z"/>
<path d="M6754 2350 c-92 -13 -142 -28 -219 -68 -134 -71 -226 -193 -270 -362
-23 -87 -32 -360 -15 -472 48 -333 243 -518 566 -535 176 -10 343 28 464 104
60 38 160 131 160 148 0 13 -176 169 -196 173 -8 2 -33 -13 -56 -33 -22 -21
-70 -51 -106 -68 -56 -26 -80 -31 -166 -35 -124 -5 -195 17 -258 80 -49 49
-90 137 -92 198 l-1 45 445 5 445 5 -1 136 c-3 250 -52 399 -173 520 -102 101
-223 152 -391 162 -41 3 -103 1 -136 -3z m226 -294 c91 -47 146 -132 152 -236
l3 -45 -285 0 -285 0 2 55 c4 115 72 205 183 241 44 14 191 5 230 -15z"/>
<path d="M8193 2350 c-128 -14 -268 -75 -352 -153 -54 -51 -109 -144 -136
-228 -48 -152 -56 -422 -19 -609 8 -41 33 -112 55 -158 91 -186 244 -275 500
-289 179 -10 415 34 517 97 l32 20 -2 182 -3 183 -145 0 -145 0 -5 -85 -5 -85
-35 -12 c-50 -17 -207 -16 -266 2 -145 43 -202 179 -192 460 6 169 26 239 85
305 60 67 111 85 238 85 70 -1 111 -6 137 -17 l37 -17 3 -78 3 -78 148 -3 147
-3 0 184 0 184 -48 26 c-73 40 -213 76 -336 87 -61 5 -118 9 -126 9 -8 -1 -47
-5 -87 -9z"/>
<path d="M10783 1199 c-66 -42 -79 -146 -27 -208 105 -125 298 7 227 156 -33
70 -132 96 -200 52z m160 -39 c50 -57 29 -158 -40 -186 -47 -20 -86 -10 -123
32 -34 40 -40 86 -15 134 35 67 127 77 178 20z"/>
<path d="M10810 1080 c0 -78 16 -112 22 -47 2 24 8 32 23 32 14 0 23 -10 30
-32 5 -18 15 -33 22 -33 16 0 16 8 2 49 -9 24 -9 35 0 44 29 29 -4 67 -60 67
l-39 0 0 -80z m75 35 c0 -14 -8 -21 -27 -23 -24 -3 -28 0 -28 23 0 23 4 26 28
23 19 -2 27 -9 27 -23z"/>
</g>
</svg>
