<?xml version="1.0" standalone="no"?>
<!DOCTYPE svg PUBLIC "-//W3C//DTD SVG 20010904//EN"
 "http://www.w3.org/TR/2001/REC-SVG-20010904/DTD/svg10.dtd">
<svg version="1.0" xmlns="http://www.w3.org/2000/svg"
 width="2164.000000pt" height="970.000000pt" viewBox="0 0 2164.000000 970.000000"
 preserveAspectRatio="xMidYMid meet">

<g transform="translate(0.000000,970.000000) scale(0.100000,-0.100000)"
fill="#000000" stroke="none">
<path d="M0 4850 l0 -4850 10820 0 10820 0 0 4850 0 4850 -10820 0 -10820 0 0
-4850z m18598 1338 l-3 -293 -410 0 -410 0 -3 293 -2 292 415 0 415 0 -2 -292z
m-15853 244 c267 -51 427 -133 587 -300 122 -128 205 -288 245 -472 27 -127
25 -420 -5 -548 -69 -299 -249 -545 -487 -664 -126 -64 -291 -102 -492 -114
-59 -3 -121 -7 -138 -9 -16 -2 -150 -4 -297 -4 l-268 -1 0 -460 0 -460 -455 0
-455 0 0 1531 0 1530 828 -4 c790 -4 832 -5 937 -25z m2440 -760 c253 -55 436
-184 529 -374 77 -156 77 -154 80 -898 2 -710 3 -721 61 -905 13 -44 25 -86
25 -93 0 -10 -84 -12 -402 -10 l-403 3 -19 101 -18 101 -72 -53 c-232 -175
-516 -245 -804 -199 -327 53 -528 232 -598 531 -18 79 -20 224 -4 284 31 116
140 276 244 361 141 114 326 175 661 219 216 28 426 69 465 90 31 17 62 88 68
155 4 58 3 64 -27 98 -58 66 -204 100 -330 77 -80 -14 -129 -39 -169 -84 -32
-36 -36 -47 -47 -108 l-6 -38 -383 0 c-210 0 -385 3 -388 6 -3 3 2 42 12 88
86 393 345 606 796 655 156 17 196 19 424 15 166 -2 236 -7 305 -22z m4821 0
c340 -76 493 -226 570 -557 13 -58 17 -176 24 -715 9 -705 13 -768 70 -934
l29 -86 -423 0 -423 0 -7 43 c-4 23 -11 70 -17 103 l-11 62 -76 -55 c-43 -30
-112 -73 -154 -94 -351 -177 -868 -129 -1069 99 -92 105 -152 263 -165 434
-13 181 35 326 152 456 152 169 349 248 739 297 234 30 323 47 421 81 92 32
113 55 124 135 16 113 -32 177 -164 214 -80 23 -205 17 -261 -13 -79 -43 -120
-92 -135 -168 l-11 -54 -389 0 -389 0 6 33 c19 102 57 227 87 290 115 236 365
392 701 436 135 18 152 19 420 16 217 -3 275 -6 351 -23z m4344 2 c237 -40
425 -137 580 -300 223 -235 322 -534 307 -929 -20 -503 -237 -850 -632 -1011
-292 -119 -672 -135 -953 -40 -338 115 -590 406 -677 780 -43 185 -50 465 -15
634 93 459 394 765 846 858 169 35 367 38 544 8z m-2232 -12 c134 -30 214 -58
327 -116 81 -41 116 -67 186 -136 112 -112 159 -207 184 -374 l7 -46 -380 0
-380 0 -18 52 c-22 66 -84 129 -149 151 -31 11 -80 17 -134 17 -155 -1 -231
-51 -231 -153 0 -84 50 -123 195 -151 44 -8 105 -22 135 -30 30 -8 154 -40
275 -71 121 -31 254 -70 296 -86 205 -79 351 -217 409 -389 19 -55 22 -85 21
-192 -1 -159 -21 -259 -72 -365 -126 -263 -413 -407 -860 -432 -409 -23 -758
58 -985 231 -132 99 -230 291 -259 506 l-7 52 401 0 c381 0 401 -1 401 -18 0
-49 33 -125 72 -164 63 -63 115 -82 233 -82 120 -1 180 14 234 61 78 66 78
166 -1 223 -55 40 -145 67 -448 135 -367 82 -542 153 -660 269 -116 113 -160
212 -167 383 -9 181 29 306 132 435 122 155 360 271 627 307 40 5 174 8 298 6
178 -3 244 -7 318 -23z m4981 -2 c120 -29 212 -80 296 -165 79 -79 126 -152
160 -252 47 -134 47 -146 52 -1015 l4 -828 -416 0 -417 0 3 678 c3 870 5 857
-148 912 -115 41 -255 17 -335 -58 -27 -25 -66 -113 -89 -202 -8 -31 -14 -242
-18 -690 l-6 -645 -315 -1 c-173 0 -357 1 -407 4 l-93 3 0 1120 0 1119 395 0
395 0 0 -113 c0 -63 3 -116 6 -120 4 -3 41 29 83 71 120 121 250 178 464 202
107 13 290 3 386 -20z m-9382 1 c232 -48 388 -182 468 -403 51 -140 55 -213
55 -1075 l0 -793 -409 0 -410 0 -4 693 c-4 736 -5 755 -53 838 -30 51 -115 83
-224 83 -74 1 -93 -3 -142 -27 -71 -35 -101 -69 -127 -149 -37 -112 -41 -187
-41 -820 l0 -618 -420 0 -420 0 0 1125 0 1125 394 0 394 0 6 -22 c3 -13 6 -69
6 -125 0 -57 1 -103 3 -103 1 0 43 39 92 88 116 112 203 155 376 187 115 21
346 18 456 -4z m12443 -11 c177 -36 334 -104 460 -199 132 -100 250 -306 306
-536 13 -55 24 -108 24 -117 0 -17 -25 -18 -389 -18 l-389 0 -11 46 c-28 112
-102 203 -183 224 -23 7 -84 12 -134 12 -114 1 -161 -19 -233 -98 -88 -96
-118 -229 -108 -484 12 -330 119 -512 312 -528 128 -10 240 38 301 130 28 41
39 74 60 176 l4 22 396 0 396 0 -6 -45 c-20 -133 -97 -329 -173 -441 -155
-227 -405 -379 -708 -430 -131 -22 -358 -22 -490 0 -349 58 -638 263 -785 556
-80 161 -109 290 -117 521 -9 265 24 444 116 634 151 312 383 490 741 569 182
40 430 43 610 6z m-1562 -1132 l2 -1128 -415 0 -415 0 0 1123 c0 618 3 1127 7
1130 4 4 189 6 412 5 l406 -3 3 -1127z"/>
<path d="M1900 5365 l0 -325 224 0 c257 0 365 14 455 59 103 53 164 147 165
256 1 173 -115 293 -314 326 -30 5 -162 9 -292 9 l-238 0 0 -325z"/>
<path d="M4783 4311 c-95 -32 -200 -66 -235 -76 -109 -30 -169 -117 -154 -223
13 -93 78 -160 169 -176 48 -9 186 11 253 35 57 21 111 71 149 135 24 41 25
50 25 203 0 147 -2 161 -17 160 -10 0 -95 -27 -190 -58z"/>
<path d="M9575 4306 c-105 -33 -211 -66 -236 -73 -90 -24 -139 -88 -139 -183
0 -81 45 -151 125 -193 33 -18 56 -21 135 -21 156 2 239 53 309 193 30 59 31
64 31 201 0 127 -2 140 -17 139 -10 -1 -104 -29 -208 -63z"/>
<path d="M14013 5071 c-130 -45 -212 -140 -255 -297 -31 -114 -31 -370 0 -496
53 -216 149 -316 313 -326 153 -9 246 47 316 189 49 99 65 170 70 321 9 217
-26 383 -104 496 -42 61 -93 94 -178 116 -75 20 -98 20 -162 -3z"/>
</g>
</svg>
